<?xml version="1.0" encoding="utf-8"?>
<!-- Generator: Adobe Illustrator 16.0.0, SVG Export Plug-In . SVG Version: 6.00 Build 0)  -->
<!DOCTYPE svg PUBLIC "-//W3C//DTD SVG 1.1//EN" "http://www.w3.org/Graphics/SVG/1.1/DTD/svg11.dtd">
<svg version="1.1" id="Layer_1" xmlns="http://www.w3.org/2000/svg" xmlns:xlink="http://www.w3.org/1999/xlink" x="0px" y="0px"
	 width="250.5px" height="90.312px" viewBox="0 0 250.5 90.312" enable-background="new 0 0 250.5 90.312" xml:space="preserve">
<g>
	<path fill-rule="evenodd" clip-rule="evenodd" fill="#66CCCC" d="M-565.878,312.523c0-13.355,0.022-26.711-0.033-40.066
		c-0.005-1.377,0.435-2.104,1.623-2.785c18.756-10.768,37.482-21.59,56.22-32.391c4.54-2.618,9.122-5.168,13.625-7.848
		c0.954-0.567,1.581-0.538,2.496-0.008c23.189,13.434,46.392,26.85,69.617,40.221c1.329,0.766,1.784,1.612,1.78,3.146
		c-0.05,26.378-0.059,52.757,0.016,79.135c0.006,1.94-0.633,2.958-2.27,3.892c-13.086,7.464-26.119,15.019-39.176,22.535
		c-9.95,5.729-19.933,11.402-29.836,17.211c-1.201,0.704-1.967,0.601-3.018-0.014c-5.217-3.05-10.458-6.053-15.689-9.075
		c-17.932-10.36-35.853-20.74-53.816-31.046c-1.259-0.722-1.57-1.525-1.567-2.842c0.034-13.354,0.021-26.71,0.021-40.064
		C-565.882,312.523-565.88,312.523-565.878,312.523z M-522.923,302.939c-4.49-3.467-9.314-4.675-14.479-3.753
		c-5.104,0.911-9.55,3.232-12.702,7.523c-5.804,7.902-5.685,17.324,0.285,24.634c2.77,3.392,6.293,5.754,10.537,6.766
		c5.77,1.377,11.313,0.784,15.958-2.656c1.197,1.061,2.065,2.271,3.238,2.781c3.109,1.349,5.994-1.08,6.002-4.884
		c0.025-12.614,0.039-25.228,0.055-37.842c0.004-3.718,0.051-7.437-0.023-11.153c-0.055-2.693-1.665-4.348-4.121-4.462
		c-2.562-0.119-4.183,1.224-4.629,3.915c-0.129,0.778-0.113,1.586-0.115,2.379C-522.927,291.618-522.923,297.046-522.923,302.939z
		 M-478.573,303.062c-8.883-6.752-19.477-3.842-24.947,1.467c-7.435,7.215-8.457,17.705-2.724,25.891
		c2.744,3.918,6.474,6.513,11.039,7.661c5.813,1.463,11.452,0.944,16.476-2.698c1.797,2.793,3.549,3.685,5.732,3.008
		c2.201-0.684,3.27-2.478,3.27-5.527c0.002-9.359,0.013-18.719-0.011-28.078c-0.007-2.962-1.266-4.705-3.624-5.214
		C-475.597,299.089-477.241,300.162-478.573,303.062z M-445.676,339.544c3.778,0.141,7.381-0.83,10.673-2.9
		c0.704-0.443,1.475-0.941,1.921-1.61c1.147-1.719,0.908-3.84-0.415-5.337c-1.312-1.482-3.697-1.909-5.651-0.856
		c-2.201,1.185-4.396,1.853-6.998,1.671c-6.438-0.451-10.981-5.504-10.947-12.055c0.028-5.587,5.827-11.227,11.851-10.537
		c2.168,0.248,4.295,1.18,6.346,2.027c2.27,0.938,4.682,0.391,5.943-1.629c1.229-1.967,0.805-4.66-1.078-5.852
		c-6.918-4.377-14.162-4.869-21.338-0.939c-7.072,3.873-10.906,10.146-10.835,18.217
		C-466.109,330.687-456.946,339.816-445.676,339.544z"/>
	<path fill-rule="evenodd" clip-rule="evenodd" fill="#66CCCC" d="M-319.56,343.057c-2.376,1.294-4.006,2.487-5.829,3.124
		c-8.742,3.055-19.191-2.601-22.106-11.932c-0.566-1.816-0.969-3.761-1.003-5.654c-0.122-6.639-0.091-13.283-0.032-19.924
		c0.027-3.135,1.539-4.77,4.129-4.764c2.6,0.005,4.087,1.382,4.105,4.032c0.047,6.575-0.002,13.151,0.02,19.726
		c0.014,3.979,1.465,7.255,4.918,9.437c3.326,2.103,6.849,2.198,10.222,0.325c3.355-1.864,5.186-4.842,5.183-8.803
		c-0.004-6.643-0.027-13.284,0.032-19.926c0.03-3.33,1.563-4.874,4.498-4.779c2.087,0.068,3.612,1.471,3.771,3.596
		c0.1,1.321,0.053,2.654,0.05,3.982c-0.023,11.756,0.015,23.512-0.097,35.266c-0.108,11.402-9.917,21.952-21.282,22.81
		c-2.929,0.222-5.943-0.052-8.858-0.495c-2.88-0.438-4.401-2.764-3.812-5.086c0.632-2.49,2.671-3.643,5.588-2.979
		c9.033,2.057,16.786-2.704,19.4-10.703C-319.965,348.176-319.956,345.816-319.56,343.057z"/>
	<path fill-rule="evenodd" clip-rule="evenodd" fill="#66CCCC" d="M-366.321,334.669c0,6.777,0.047,13.555-0.013,20.332
		c-0.06,6.848-4.731,11.404-11.161,10.938c-2.675-0.193-5.02-1.196-6.827-3.257c-1.508-1.719-1.544-4.086-0.105-5.593
		c1.491-1.562,3.774-1.687,5.63-0.546c0.806,0.496,2.149,1.039,2.756,0.693c0.688-0.393,1.146-1.752,1.15-2.693
		c0.063-13.621,0.016-27.242,0.047-40.863c0.003-1.4-0.496-1.92-1.855-1.852c-1.259,0.063-2.527,0.068-3.785-0.014
		c-2.218-0.143-3.863-1.89-3.895-4.027c-0.029-2.16,1.555-3.937,3.803-4.133c1.254-0.109,2.527-0.127,3.784-0.053
		c1.458,0.087,1.933-0.471,1.984-1.946c0.163-4.604,1.493-8.856,4.217-12.64c3.397-4.72,8.206-6.753,13.791-7.266
		c1.515-0.139,3.056-0.055,4.581,0.008c2.922,0.118,4.49,1.814,4.287,4.561c-0.193,2.606-2.214,4.134-5.031,3.802
		c-6.249-0.735-11.111,2.444-12.713,8.316c-1.33,4.88-1.145,5.13,3.852,5.151c2.391,0.01,4.784-0.039,7.174,0.039
		c2.668,0.087,4.258,1.633,4.27,3.998c0.012,2.466-1.619,4.116-4.326,4.188c-3.12,0.083-6.249,0.147-9.365,0.013
		c-1.83-0.079-2.265,0.656-2.25,2.311c0.057,6.844,0.023,13.688,0.023,20.531C-366.308,334.669-366.313,334.669-366.321,334.669z"/>
	<path fill-rule="evenodd" clip-rule="evenodd" fill="#66CCCC" d="M-413.575,310.318c0-8.035,0.017-16.07-0.011-24.105
		c-0.007-1.998,0.714-3.483,2.606-4.262c2.582-1.061,5.193,0.516,5.504,3.375c0.137,1.248,0.064,2.521,0.064,3.781
		c0.002,14.809-0.038,29.618,0.063,44.426c0.009,1.318,0.674,2.822,1.488,3.895c1.029,1.355,2.728,1.668,4.347,0.97
		c1.779-0.767,2.799-2.138,2.795-4.187c-0.018-7.969-0.014-15.938,0.003-23.906c0.003-1.057,0.011-2.137,0.224-3.162
		c0.464-2.229,2.248-3.607,4.221-3.415c2.296,0.224,3.893,1.853,3.916,4.229c0.059,6.374,0.07,12.749,0.042,19.123
		c-0.015,3.112,0.192,6.283-0.315,9.324c-1.16,6.963-7.012,11.188-13.928,10.457c-6.229-0.658-10.994-6.177-11.02-12.836
		c-0.027-7.902-0.006-15.805-0.006-23.707C-413.579,310.318-413.577,310.318-413.575,310.318z"/>
	<path fill-rule="evenodd" clip-rule="evenodd" fill="#66CCCC" d="M-397.522,296.109c0.037-2.895,2-4.9,4.814-4.916
		c2.778-0.016,5.013,2.277,4.955,5.086c-0.056,2.768-2.164,4.758-5.011,4.732C-395.649,300.984-397.562,299.014-397.522,296.109z"/>
	<path fill-rule="evenodd" clip-rule="evenodd" fill="#66CCCC" d="M-522.922,319.039c-0.101,5.991-5.341,11.069-11.362,11.01
		c-6.264-0.064-11.309-5.282-11.189-11.574c0.115-6.031,5.377-11.036,11.438-10.879
		C-527.766,307.759-522.819,312.853-522.922,319.039z"/>
	<path fill-rule="evenodd" clip-rule="evenodd" fill="#66CCCC" d="M-478.657,318.853c0.023,6.158-5.047,11.238-11.261,11.281
		c-6.015,0.043-11.259-5.096-11.298-11.068c-0.039-6.111,5.129-11.382,11.191-11.411
		C-483.839,307.625-478.68,312.708-478.657,318.853z"/>
</g>
<g>
	<path fill-rule="evenodd" clip-rule="evenodd" fill="#66CCCC" d="M-539.878,54.808c0-13.355,0.022-26.71-0.033-40.066
		c-0.005-1.377,0.435-2.104,1.623-2.786c18.756-10.767,37.482-21.589,56.22-32.391c4.54-2.618,9.122-5.167,13.625-7.847
		c0.954-0.567,1.581-0.538,2.496-0.008c23.189,13.434,46.392,26.85,69.617,40.221c1.329,0.766,1.784,1.612,1.78,3.145
		c-0.05,26.378-0.059,52.757,0.016,79.135c0.006,1.94-0.633,2.958-2.27,3.892c-13.086,7.464-26.119,15.019-39.176,22.535
		c-9.95,5.729-19.933,11.402-29.836,17.211c-1.201,0.704-1.967,0.601-3.018-0.014c-5.217-3.05-10.458-6.053-15.689-9.075
		c-17.932-10.36-35.853-20.74-53.816-31.046c-1.259-0.722-1.57-1.525-1.567-2.842c0.034-13.354,0.021-26.71,0.021-40.065
		C-539.882,54.808-539.88,54.808-539.878,54.808z M-496.923,45.225c-4.49-3.467-9.314-4.675-14.479-3.753
		c-5.104,0.911-9.55,3.232-12.702,7.523c-5.804,7.902-5.685,17.324,0.285,24.634c2.77,3.392,6.293,5.754,10.537,6.766
		c5.77,1.377,11.313,0.784,15.958-2.656c1.197,1.061,2.065,2.271,3.238,2.781c3.109,1.349,5.994-1.08,6.002-4.884
		c0.025-12.614,0.039-25.228,0.055-37.842c0.004-3.718,0.051-7.437-0.023-11.153c-0.055-2.694-1.665-4.348-4.121-4.462
		c-2.562-0.119-4.183,1.223-4.629,3.915c-0.129,0.778-0.113,1.585-0.115,2.379C-496.927,33.903-496.923,39.332-496.923,45.225z
		 M-452.573,45.347c-8.883-6.752-19.477-3.841-24.947,1.467c-7.435,7.214-8.457,17.705-2.724,25.891
		c2.744,3.918,6.474,6.513,11.039,7.661c5.813,1.463,11.452,0.944,16.476-2.698c1.797,2.793,3.549,3.685,5.732,3.008
		c2.201-0.684,3.27-2.478,3.27-5.527c0.002-9.359,0.013-18.719-0.011-28.078c-0.007-2.962-1.266-4.706-3.624-5.214
		C-449.597,41.374-451.241,42.446-452.573,45.347z M-419.676,81.83c3.778,0.141,7.381-0.83,10.673-2.9
		c0.704-0.443,1.475-0.941,1.921-1.61c1.147-1.719,0.908-3.84-0.415-5.337c-1.312-1.482-3.697-1.909-5.651-0.856
		c-2.201,1.185-4.396,1.853-6.998,1.671c-6.438-0.451-10.981-5.504-10.947-12.055c0.028-5.587,5.827-11.227,11.851-10.538
		c2.168,0.248,4.295,1.18,6.346,2.027c2.27,0.939,4.682,0.391,5.943-1.628c1.229-1.966,0.805-4.66-1.078-5.851
		c-6.918-4.377-14.162-4.87-21.338-0.939c-7.072,3.873-10.906,10.145-10.835,18.216C-440.109,72.972-430.946,82.101-419.676,81.83z"
		/>
	<path fill-rule="evenodd" clip-rule="evenodd" fill="#66CCCC" d="M-293.56,85.342c-2.376,1.294-4.006,2.487-5.829,3.124
		c-8.742,3.055-19.191-2.601-22.106-11.932c-0.566-1.816-0.969-3.761-1.003-5.654c-0.122-6.639-0.091-13.283-0.032-19.923
		c0.027-3.135,1.539-4.77,4.129-4.765c2.6,0.005,4.087,1.382,4.105,4.033c0.047,6.575-0.002,13.151,0.02,19.726
		c0.014,3.979,1.465,7.255,4.918,9.437c3.326,2.103,6.849,2.198,10.222,0.325c3.355-1.864,5.186-4.842,5.183-8.803
		c-0.004-6.643-0.027-13.284,0.032-19.926c0.03-3.331,1.563-4.874,4.498-4.779c2.087,0.068,3.612,1.47,3.771,3.595
		c0.1,1.321,0.053,2.654,0.05,3.982c-0.023,11.756,0.015,23.512-0.097,35.266c-0.108,11.402-9.917,21.952-21.282,22.81
		c-2.929,0.222-5.943-0.052-8.858-0.495c-2.88-0.438-4.401-2.764-3.812-5.086c0.632-2.49,2.671-3.643,5.588-2.979
		c9.033,2.057,16.786-2.704,19.4-10.703C-293.965,90.461-293.956,88.101-293.56,85.342z"/>
	<path fill-rule="evenodd" clip-rule="evenodd" fill="#66CCCC" d="M-340.321,76.955c0,6.777,0.047,13.555-0.013,20.332
		c-0.06,6.848-4.731,11.404-11.161,10.938c-2.675-0.193-5.02-1.196-6.827-3.257c-1.508-1.719-1.544-4.086-0.105-5.593
		c1.491-1.562,3.774-1.687,5.63-0.546c0.806,0.496,2.149,1.039,2.756,0.693c0.688-0.393,1.146-1.752,1.15-2.693
		c0.063-13.621,0.016-27.242,0.047-40.863c0.003-1.401-0.496-1.92-1.855-1.852c-1.259,0.062-2.527,0.068-3.785-0.013
		c-2.218-0.144-3.863-1.89-3.895-4.027c-0.029-2.161,1.555-3.937,3.803-4.133c1.254-0.11,2.527-0.127,3.784-0.053
		c1.458,0.087,1.933-0.47,1.984-1.946c0.163-4.605,1.493-8.857,4.217-12.64c3.397-4.72,8.206-6.753,13.791-7.266
		c1.515-0.139,3.056-0.054,4.581,0.008c2.922,0.119,4.49,1.815,4.287,4.561c-0.193,2.606-2.214,4.134-5.031,3.802
		c-6.249-0.735-11.111,2.445-12.713,8.316c-1.33,4.88-1.145,5.13,3.852,5.151c2.391,0.01,4.784-0.039,7.174,0.039
		c2.668,0.087,4.258,1.633,4.27,3.999c0.012,2.466-1.619,4.116-4.326,4.188c-3.12,0.083-6.249,0.147-9.365,0.012
		c-1.83-0.079-2.265,0.657-2.25,2.311c0.057,6.844,0.023,13.688,0.023,20.531C-340.308,76.955-340.313,76.955-340.321,76.955z"/>
	<path fill-rule="evenodd" clip-rule="evenodd" fill="#66CCCC" d="M-387.575,52.604c0-8.035,0.017-16.07-0.011-24.105
		c-0.007-1.999,0.714-3.484,2.606-4.262c2.582-1.061,5.193,0.515,5.504,3.375c0.137,1.248,0.064,2.52,0.064,3.781
		c0.002,14.809-0.038,29.618,0.063,44.425c0.009,1.318,0.674,2.822,1.488,3.895c1.029,1.355,2.728,1.668,4.347,0.97
		c1.779-0.767,2.799-2.138,2.795-4.187c-0.018-7.969-0.014-15.938,0.003-23.907c0.003-1.056,0.011-2.136,0.224-3.161
		c0.464-2.229,2.248-3.607,4.221-3.416c2.296,0.223,3.893,1.853,3.916,4.229c0.059,6.374,0.07,12.749,0.042,19.123
		c-0.015,3.112,0.192,6.283-0.315,9.324c-1.16,6.963-7.012,11.188-13.928,10.457c-6.229-0.658-10.994-6.177-11.02-12.836
		c-0.027-7.902-0.006-15.805-0.006-23.707C-387.579,52.604-387.577,52.604-387.575,52.604z"/>
	<path fill-rule="evenodd" clip-rule="evenodd" fill="#66CCCC" d="M-371.522,38.395c0.037-2.895,2-4.9,4.814-4.916
		c2.778-0.017,5.013,2.277,4.955,5.086c-0.056,2.767-2.164,4.758-5.011,4.731C-369.649,43.269-371.562,41.299-371.522,38.395z"/>
	<path fill-rule="evenodd" clip-rule="evenodd" fill="#66CCCC" d="M-496.922,61.324c-0.101,5.991-5.341,11.069-11.362,11.01
		c-6.264-0.064-11.309-5.282-11.189-11.574c0.115-6.031,5.377-11.036,11.438-10.878C-501.766,50.044-496.819,55.138-496.922,61.324z
		"/>
	<path fill-rule="evenodd" clip-rule="evenodd" fill="#66CCCC" d="M-452.657,61.138c0.023,6.158-5.047,11.238-11.261,11.281
		c-6.015,0.043-11.259-5.096-11.298-11.068c-0.039-6.112,5.129-11.382,11.191-11.411C-457.839,49.911-452.68,54.993-452.657,61.138z
		"/>
</g>
<path fill-rule="evenodd" clip-rule="evenodd" fill="#66CCCC" d="M242.529,63.718c-2.376,1.295-4.006,2.488-5.829,3.125
	c-8.742,3.055-19.191-2.602-22.106-11.932c-0.566-1.816-0.969-3.762-1.003-5.654c-0.122-6.639-0.091-13.283-0.032-19.924
	c0.027-3.135,1.539-4.77,4.129-4.764c2.6,0.004,4.087,1.381,4.105,4.031c0.047,6.576-0.002,13.152,0.02,19.727
	c0.014,3.979,1.465,7.254,4.918,9.436c3.326,2.104,6.849,2.199,10.222,0.326c3.355-1.865,5.186-4.842,5.183-8.803
	c-0.004-6.643-0.027-13.285,0.032-19.926c0.03-3.33,1.563-4.875,4.498-4.779c2.087,0.068,3.612,1.471,3.771,3.596
	c0.1,1.32,0.053,2.654,0.05,3.982c-0.023,11.756,0.015,23.512-0.097,35.266c-0.108,11.402-9.917,21.951-21.282,22.809
	c-2.929,0.223-5.943-0.051-8.858-0.494c-2.88-0.438-4.401-2.764-3.812-5.086c0.632-2.49,2.671-3.643,5.588-2.979
	c9.033,2.057,16.786-2.705,19.4-10.703C242.124,68.837,242.133,66.478,242.529,63.718z"/>
<path fill-rule="evenodd" clip-rule="evenodd" fill="#66CCCC" d="M195.768,55.331c0,6.777,0.047,13.555-0.013,20.332
	c-0.06,6.848-4.731,11.404-11.161,10.938c-2.675-0.193-5.02-1.195-6.827-3.256c-1.508-1.719-1.544-4.086-0.105-5.594
	c1.491-1.561,3.774-1.686,5.63-0.545c0.806,0.496,2.149,1.039,2.756,0.693c0.688-0.393,1.146-1.752,1.15-2.693
	c0.063-13.621,0.016-27.242,0.047-40.863c0.003-1.4-0.496-1.92-1.855-1.852c-1.259,0.063-2.527,0.068-3.785-0.014
	c-2.218-0.143-3.863-1.891-3.895-4.027c-0.029-2.16,1.555-3.938,3.803-4.133c1.254-0.109,2.527-0.127,3.784-0.053
	c1.458,0.086,1.933-0.471,1.984-1.947c0.163-4.604,1.493-8.855,4.217-12.639c3.397-4.721,8.206-6.754,13.791-7.266
	c1.515-0.139,3.056-0.055,4.581,0.008c2.922,0.117,4.49,1.814,4.287,4.561c-0.193,2.605-2.214,4.133-5.031,3.801
	c-6.249-0.734-11.111,2.445-12.713,8.316c-1.33,4.881-1.145,5.131,3.852,5.152c2.391,0.01,4.784-0.039,7.174,0.039
	c2.668,0.086,4.258,1.633,4.27,3.998c0.012,2.465-1.619,4.115-4.326,4.188c-3.12,0.084-6.249,0.148-9.365,0.014
	c-1.83-0.08-2.265,0.656-2.25,2.311c0.057,6.844,0.023,13.688,0.023,20.531C195.781,55.331,195.775,55.331,195.768,55.331z"/>
<path fill-rule="evenodd" clip-rule="evenodd" fill="#66CCCC" d="M148.514,30.979c0-8.035,0.017-16.07-0.011-24.105
	c-0.007-1.998,0.714-3.484,2.606-4.262c2.582-1.061,5.193,0.516,5.504,3.375c0.137,1.248,0.064,2.52,0.064,3.781
	c0.002,14.809-0.038,29.617,0.063,44.426c0.009,1.318,0.674,2.822,1.488,3.895c1.029,1.355,2.728,1.668,4.347,0.969
	c1.779-0.766,2.799-2.137,2.795-4.186c-0.018-7.969-0.014-15.938,0.003-23.906c0.003-1.057,0.011-2.137,0.224-3.162
	c0.464-2.229,2.248-3.607,4.221-3.416c2.296,0.225,3.893,1.854,3.916,4.23c0.059,6.373,0.07,12.748,0.042,19.123
	c-0.015,3.111,0.192,6.283-0.315,9.324c-1.16,6.963-7.012,11.188-13.928,10.457c-6.229-0.658-10.994-6.178-11.02-12.836
	c-0.027-7.902-0.006-15.805-0.006-23.707C148.51,30.979,148.512,30.979,148.514,30.979z"/>
<path fill-rule="evenodd" clip-rule="evenodd" fill="#66CCCC" d="M164.566,16.771c0.037-2.895,2-4.9,4.814-4.916
	c2.778-0.016,5.013,2.277,4.955,5.086c-0.056,2.768-2.164,4.758-5.011,4.732C166.439,21.646,164.527,19.675,164.566,16.771z"/>
<path fill-rule="evenodd" clip-rule="evenodd" fill="#66CCCC" d="M141.855,55.252c0,7.462-6.051,13.51-13.51,13.51H13.51
	C6.049,68.762,0,62.714,0,55.252V13.509C0,6.049,6.049,0,13.51,0h114.836c7.459,0,13.51,6.049,13.51,13.509V55.252z"/>
<g>
	<g>
		<g>
			<path fill="#FFFFFF" d="M47.522,34.387c0,4.015-0.885,7.653-2.656,10.916s-4.128,5.795-7.07,7.594
				c-2.041,1.246-4.318,2.146-6.83,2.699c-2.512,0.555-5.819,0.831-9.922,0.831h-6.288c-2.75,0-5-2.25-5-5v-34.17c0-2.75,2.25-5,5-5
				h1.168c2.75,0,7.248,0.09,9.996,0.199c0,0,2.835,0.112,5.406,0.735s4.748,1.479,6.53,2.566c3.042,1.879,5.413,4.38,7.114,7.505
				S47.522,30.096,47.522,34.387z M41.309,34.298c0-3.461-0.611-6.378-1.831-8.751c-1.222-2.373-3.043-4.242-5.464-5.606
				c-1.762-0.989-3.633-1.677-5.614-2.063c-1.981-0.385-4.354-0.578-7.115-0.578H20.7c-2.75,0-5,2.25-5,5v24.084
				c0,2.75,1.257,5,2.792,5s5.04-0.087,7.788-0.194c0,0,0.363-0.014,2.494-0.429c2.132-0.415,4.088-1.187,5.869-2.313
				c2.222-1.404,3.888-3.253,4.999-5.547C40.753,40.606,41.309,37.738,41.309,34.298z"/>
		</g>
		<g>
			<path fill="#FFFFFF" d="M90.646,51.735c0.951,2.58,0.304,4.691-1.438,4.691s-3.922-2.119-4.845-4.71l-1.028-2.891
				c-0.923-2.591-3.928-4.71-6.678-4.71h-9.333c-2.75,0-5.755,2.119-6.678,4.71l-1.028,2.891c-0.923,2.591-3.035,4.71-4.694,4.71
				c-1.66,0-2.24-2.111-1.289-4.691l12.814-34.787c0.951-2.58,3.512-4.691,5.691-4.691s4.74,2.111,5.691,4.691L90.646,51.735z
				 M74.825,39.073c2.75,0,4.235-2.116,3.301-4.702l-4.438-12.28c-0.935-2.586-2.467-2.587-3.404-0.002l-4.455,12.284
				c-0.938,2.585,0.545,4.7,3.295,4.7H74.825z"/>
		</g>
		<g>
			<path fill="#FFFFFF" d="M133.684,49.782c0,1.892-0.943,3.854-2.097,4.36c0,0,0,0-0.89,0.415
				c-0.892,0.416-2.057,0.851-3.498,1.306c-1.221,0.376-2.547,0.697-3.978,0.964c-1.432,0.267-3.008,0.4-4.729,0.4
				c-3.242,0-6.189-0.45-8.841-1.35c-2.652-0.899-4.959-2.309-6.92-4.228c-1.922-1.878-3.423-4.266-4.504-7.163
				c-1.08-2.897-1.621-6.264-1.621-10.101c0-3.639,0.521-6.892,1.562-9.76c1.04-2.867,2.541-5.29,4.503-7.268
				c1.901-1.918,4.198-3.382,6.89-4.391c2.692-1.009,5.679-1.513,8.962-1.513c2.401,0,4.798,0.287,7.189,0.86
				c2.392,0.574,5.049,1.582,7.971,3.025v1.972c0,2.75-0.102,5-0.226,5c-0.123,0-2.053-1.313-4.286-2.916
				c0,0-0.842-0.604-3.264-1.534c-2.422-0.929-5.014-1.394-7.775-1.394c-2.262,0-4.298,0.36-6.109,1.082
				c-1.812,0.723-3.428,1.845-4.849,3.367c-1.381,1.483-2.457,3.357-3.227,5.621c-0.771,2.265-1.156,4.88-1.156,7.847
				c0,3.104,0.425,5.774,1.276,8.009c0.85,2.235,1.946,4.055,3.287,5.458c1.4,1.464,3.037,2.547,4.908,3.249s3.848,1.053,5.93,1.053
				c2.861,0,5.543-0.484,8.045-1.454c2.502-0.969,4.844-2.422,7.025-4.36l0,0C133.495,46.341,133.684,47.89,133.684,49.782z"/>
		</g>
	</g>
</g>
</svg>
